<svg width="193" height="230" xmlns="http://www.w3.org/2000/svg" xmlns:xlink="http://www.w3.org/1999/xlink" fill="none">
 <style>.B{fill-rule:evenodd}.C{fill:#633001}.D{fill:#fedc90}.E{fill:#d1884f}</style>
 <defs>
  <clipPath id="B">
   <path id="svg_1" d="m0,0l192.24,0l0,230l-192.24,0l0,-230z" fill="#fff"/>
  </clipPath>
  <path d="m58.863,52.165c0,9.167 10.737,16.598 23.98,16.598s23.98,-7.43 23.98,-16.598s-10.737,-16.598 -23.98,-16.598s-23.98,7.43 -23.98,16.598z" id="C"/>
  <linearGradient y2="0.99248" y1="0.00957" x2="0.50542" x1="0.50542" id="A">
   <stop stop-color="#9f4a08"/>
   <stop stop-color="#7d3900" offset="0.37"/>
   <stop stop-color="#8d4104" offset="1"/>
  </linearGradient>
 </defs>
 <g>
  <title>Layer 1</title>
  <g id="svg_2" clip-path="url(#B)">
   <g id="svg_3" opacity="0.1">
    <path id="svg_4" class="B" d="m8.763,136.977l-0.042,2a47.16,47.16 0 0 0 0.597,7.484l-0.598,0l0,3.87a47.15,47.15 0 0 0 0.335,5.614c4.33,36.136 50.11,64.57 105.945,64.57s101.614,-28.433 105.945,-64.57c0.222,-1.852 0.335,-3.724 0.335,-5.614l0,-3.87l-0.598,0c0.395,-2.46 0.598,-4.956 0.598,-7.484c0,-0.67 -0.015,-1.336 -0.043,-2c-1.603,-37.837 -48.553,-68.184 -106.237,-68.184s-104.634,30.347 -106.237,68.184zm-8.73,0c0.8,-23.086 15.214,-42.478 35.29,-55.735c20.81,-13.742 49.002,-21.932 79.677,-21.932s58.867,8.19 79.677,21.934c20.075,13.257 34.498,32.65 35.29,55.735l0.033,0l0,13.355c0,23.966 -14.67,44.097 -35.323,57.735c-20.81,13.741 -49.002,21.931 -79.677,21.931s-58.867,-8.19 -79.677,-21.933c-20.653,-13.637 -35.323,-33.769 -35.323,-57.735l0,-13.355l0.034,0l-0.001,0z" fill="#606063"/>
    <path id="svg_5" d="m221.28,150.334c0,38.76 -47.583,70.183 -106.28,70.183s-106.28,-31.422 -106.28,-70.183l0,-11.1l212.56,0l0,11.1z" fill="#bebebe"/>
    <path id="svg_6" d="m221.28,138.977c0,38.76 -47.583,70.183 -106.28,70.183s-106.28,-31.422 -106.28,-70.183s47.583,-70.183 106.28,-70.183s106.28,31.423 106.28,70.184l0,-0.001z" fill="#faf9fa"/>
    <path id="svg_7" class="B C" d="m25.072,119.15l0,0.132c0,3.19 0.425,6.317 1.24,9.352l-1.24,0l0,4.1a35.77,35.77 0 0 0 0.406,5.375c4.052,26.686 37.95,47.515 79.167,47.515s75.115,-20.83 79.167,-47.515c0.27,-1.767 0.406,-3.56 0.406,-5.375l0,-4.1l-1.24,0a36.04,36.04 0 0 0 1.239,-9.092l0.001,-0.26l0,-0.132c-0.107,-29.15 -35.692,-52.758 -79.573,-52.758s-79.465,23.608 -79.573,52.758zm-8.72,0l-0.001,0l0,13.594c0,19.16 11.65,34.97 27.48,45.492c15.98,10.622 37.503,16.883 60.814,16.883s44.833,-6.26 60.814,-16.883c15.83,-10.522 27.48,-26.332 27.48,-45.492l0.001,-13.462c0,-19.16 -11.648,-34.97 -27.48,-45.492c-15.98,-10.622 -37.503,-16.883 -60.814,-16.883s-44.834,6.261 -60.816,16.893c-15.795,10.498 -27.426,26.26 -27.48,45.36l0.002,-0.01z"/>
    <path id="svg_8" class="D" d="m184.217,132.745c0,29.2 -35.626,52.89 -79.573,52.89s-79.573,-23.68 -79.573,-52.89l0,-12.41l159.146,0l0,12.41z"/>
    <path id="svg_9" class="E" d="m184.217,119.282c0,29.2 -35.626,52.89 -79.573,52.89s-79.573,-23.68 -79.573,-52.89s35.626,-52.9 79.573,-52.9s79.573,23.68 79.573,52.9z"/>
    <path id="svg_10" class="B C" d="m49.053,90.696l0,0.132c0,3.192 0.425,6.317 1.24,9.353l-1.24,0l0,4.1a35.75,35.75 0 0 0 0.406,5.374c4.052,26.686 37.95,47.515 79.167,47.515s75.116,-20.83 79.167,-47.515c0.27,-1.767 0.406,-3.56 0.406,-5.374l0,-4.1l-1.24,0c0.793,-2.953 1.217,-5.99 1.24,-9.092l0.001,-0.26l0,-0.132c-0.107,-29.15 -35.692,-52.758 -79.573,-52.758s-79.467,23.608 -79.574,52.757zm-8.72,0l-0.001,0l0,13.595c0,19.16 11.65,34.97 27.48,45.49c15.98,10.622 37.504,16.883 60.814,16.883s44.833,-6.26 60.814,-16.883c15.83,-10.522 27.48,-26.332 27.48,-45.49l0,-13.463c0,-19.16 -11.65,-34.97 -27.48,-45.49c-15.98,-10.622 -37.503,-16.882 -60.814,-16.882s-44.833,6.26 -60.814,16.882c-15.795,10.498 -27.426,26.26 -27.48,45.36l0.001,-0.002z"/>
    <path id="svg_11" class="D" d="m208.198,104.29c0,29.2 -35.626,52.9 -79.573,52.9s-79.573,-23.68 -79.573,-52.9l0,-12.41l159.146,0l0,12.41z"/>
    <path id="svg_12" class="E" d="m208.198,90.828c0,29.2 -35.626,52.89 -79.573,52.89s-79.573,-23.68 -79.573,-52.89s35.626,-52.89 79.573,-52.89s79.573,23.68 79.573,52.89z"/>
    <path id="svg_13" class="B C" d="m25.072,62.242l0,0.132a35.97,35.97 0 0 0 1.24,9.353l-1.24,0l0,4.1a35.77,35.77 0 0 0 0.406,5.374c4.052,26.686 37.95,47.515 79.167,47.515s75.115,-20.83 79.167,-47.515a35.68,35.68 0 0 0 0.406,-5.374l0,-4.1l-1.24,0c0.792,-2.953 1.216,-5.99 1.24,-9.092l0.001,-0.26l0,-0.132c-0.107,-29.15 -35.692,-52.758 -79.573,-52.758s-79.466,23.608 -79.574,52.757zm-8.72,0l-0.001,0l0,13.595c0,19.16 11.65,34.97 27.48,45.492c15.98,10.62 37.503,16.882 60.814,16.882s44.833,-6.26 60.814,-16.882c15.83,-10.523 27.48,-26.332 27.48,-45.492l0.001,-13.463c0,-19.16 -11.648,-34.97 -27.48,-45.492c-15.982,-10.622 -37.504,-16.882 -60.815,-16.882s-44.833,6.26 -60.815,16.883c-15.795,10.498 -27.426,26.26 -27.48,45.36l0.002,-0.001z"/>
    <path id="svg_14" class="D" d="m184.217,75.837c0,29.2 -35.626,52.9 -79.573,52.9s-79.573,-23.68 -79.573,-52.9l0,-12.41l159.146,0l0,12.41z"/>
    <path id="svg_15" class="E" d="m184.217,62.374c0,29.2 -35.626,52.9 -79.573,52.9s-79.573,-23.68 -79.573,-52.9s35.626,-52.89 79.573,-52.89s79.573,23.68 79.573,52.89z"/>
    <g id="svg_16" class="B">
     <path id="svg_17" d="m43.894,65.665c0,9.752 6.515,18.486 16.794,24.363l-7.122,13.417l0,33.953c0,4.5 3.346,8.13 7.475,8.13s7.475,-3.64 7.475,-8.13l0,-27.003l7.662,-14.433c4.9,1.13 10.158,1.744 15.63,1.744c26.462,0 47.915,-14.345 47.915,-32.04s-21.453,-32.04 -47.915,-32.04s-47.915,14.345 -47.915,32.04l0.001,-0.001z" fill="url(#A)"/>
     <path id="svg_18" class="C" d="m60.688,90.028l-3.273,-2.056c-8.37,-5.77 -13.52,-13.636 -13.52,-22.307c0,-17.696 21.452,-32.04 47.915,-32.04s47.914,14.345 47.914,32.04s-21.452,32.04 -47.914,32.04c-5.473,0 -10.732,-0.614 -15.63,-1.744l-7.662,14.433l0,27.003c0,4.5 -3.347,8.13 -7.475,8.13s-7.475,-3.64 -7.475,-8.13l0,-33.953l7.122,-13.417l-0.002,0.001zm-14.752,13.56l0,33.8c0,9.073 6.763,16.43 15.105,16.43s15.105,-7.356 15.105,-16.43l0,-24.78l3.974,-7.486c3.774,0.572 7.686,0.87 11.69,0.87c14.41,0 27.82,-3.89 37.877,-10.613c9.932,-6.642 17.668,-16.918 17.668,-29.726s-7.736,-23.084 -17.668,-29.726c-10.057,-6.725 -23.468,-10.614 -37.877,-10.614s-27.82,3.89 -37.877,10.614c-9.933,6.653 -17.67,16.93 -17.67,29.738c0,11.24 5.92,20.498 14.145,27.13l-3.397,6.4c-0.324,0.6 -0.582,1.227 -0.765,1.9c-0.223,0.82 -0.324,1.66 -0.3,2.494l-0.01,-0.001z"/>
    </g>
    <g id="svg_19" fill="#9e7200">
     <use id="svg_20" xlink:href="#C"/>
     <path id="svg_21" d="m58.863,45.052l47.963,0l0,7.113l-47.963,0l0,-7.113z"/>
    </g>
    <path id="svg_22" d="m58.863,45.052c0,9.167 10.737,16.598 23.98,16.598s23.98,-7.43 23.98,-16.598s-10.737,-16.598 -23.98,-16.598s-23.98,7.43 -23.98,16.598z" fill="#f0b90b"/>
    <path id="svg_23" d="m73.743,43.05l6.76,-4.678c1.428,-0.988 3.254,-0.988 4.682,0l6.76,4.678c1.346,0.932 1.346,3.07 0,4l-6.76,4.678c-1.428,0.99 -3.254,0.99 -4.682,0l-6.76,-4.678c-1.346,-0.932 -1.346,-3.07 0,-4z" fill="#9e7200"/>
    <path id="svg_24" class="B C" d="m61.8,26.314c5.74,-3.973 13.204,-6.16 21.054,-6.16s15.313,2.186 21.054,6.16c5.65,3.9 10.558,10.333 10.558,18.738l0,7.114c0,8.405 -4.908,14.828 -10.558,18.738c-5.74,3.973 -13.204,6.16 -21.053,6.16s-15.325,-2.187 -21.055,-6.161c-5.65,-3.9 -10.558,-10.333 -10.558,-18.738l0,-7.114c0,-8.405 4.908,-14.828 10.558,-18.738l0,0.001zm21.054,2.14c-13.244,0 -23.98,7.43 -23.98,16.598l0,7.114c0,9.167 10.737,16.598 23.98,16.598s23.98,-7.43 23.98,-16.598l0,-7.114c0,-9.167 -10.737,-16.598 -23.98,-16.598z"/>
   </g>
  </g>
  <ellipse ry="10" rx="17" id="svg_25" cy="43.8" cx="87.5" stroke="#000" fill="#fff"/>
  <ellipse id="svg_26" cy="124.8" cx="140.5" stroke="#000" fill="#fff"/>
  <ellipse ry="0.5" id="svg_27" cy="89.3" cx="138.5" stroke="#000" fill="#fff"/>
  <ellipse ry="14.5" rx="23.5" id="svg_28" cy="70.3" cx="94" stroke="#000" fill="#fff"/>
  <path d="m135.5,87.8c-1,0 -1,0 -5,0c-8,0 -16,0 -21,0c-3,0 -4.15224,0.76537 -6,0c-1.30656,-0.5412 -2,-4 -3,-6c-1,-2 -2,-4 -2,-6l-1,-1" id="svg_29" stroke="#000" fill="none"/>
  <path d="m102.5,48.8c1,0 4,0 12,-1c8,-1 15,-2 20,-2c4,0 7.31001,0.33749 10,2c3.60901,2.23049 5.25658,6.41886 10,8c2.84605,0.94868 4.186,2.69255 6,4c2.29454,1.65381 3.60083,2.25577 5,4c2.57994,3.2162 3.75563,6.01499 4,8c0.50377,4.09222 1,7 1,9c0,3 -1,4 -3,6c-1,1 -3.90283,3.22421 -6,4c-3.867,1.4305 -6.90779,2.49622 -11,3c-2.97752,0.36655 -4,1 -7,1c-2,0 -5.15224,0.76537 -7,0c-2.61313,-1.08239 -6,-4 -9,-6l-1,-1l-2,-2" id="svg_30" stroke="#000" fill="none"/>
  <path d="m58.5,70.8c0,0 -3.34355,0.68371 -7,5c-5.56033,6.56374 -9.42481,12.80134 -13,21c-3.41519,7.83176 -5.37852,16.16051 -4,22c1.54123,6.52876 7.73909,15.23888 16,24c8.73175,9.26048 20.17379,19.66255 33,25c14.33271,5.96436 28,8 39,8c11,0 21.72536,2.06575 30,-2c7.00978,-3.44426 10.14801,-10.98045 11,-18c1.21091,-9.97665 2.0619,-20.18248 0,-29c-2.66515,-11.39723 -9.11351,-19.9203 -14,-27c-4.09622,-5.93473 -8,-10 -11,-12c-3,-2 -6.02582,-1.67963 -8,-2c-3.12144,-0.50654 -4,-1 -7,-1l-1,0" id="svg_31" stroke="#000" fill="none"/>
  <path d="m67.5,23.8c1,0 5.68471,-0.87315 11,4c4.71973,4.32713 10.25802,10.90437 12,16c2.35496,6.8887 3,13 3,19l0,3l0,2" id="svg_32" stroke="#000" fill="none"/>
 </g>
</svg>